<?xml version="1.0" encoding="UTF-8"?>
<svg xmlns="http://www.w3.org/2000/svg" xmlns:xlink="http://www.w3.org/1999/xlink" viewBox="0 0 24 24" width="24px" height="24px">
<g id="surface22990370">
<path style=" stroke:none;fill-rule:nonzero;fill:rgb(29.019609%,56.470591%,88.627452%);fill-opacity:1;" d="M 12 2 C 10.246094 2 8.785156 3.3125 8.539062 5 L 5.117188 5 C 5.078125 4.992188 5.035156 4.988281 4.988281 4.988281 C 4.953125 4.988281 4.914062 4.992188 4.878906 5 L 3.25 5 C 2.980469 4.996094 2.726562 5.136719 2.589844 5.371094 C 2.457031 5.605469 2.457031 5.894531 2.589844 6.128906 C 2.726562 6.363281 2.980469 6.503906 3.25 6.5 L 4.320312 6.5 L 5.578125 19.515625 C 5.714844 20.917969 6.90625 22 8.316406 22 L 15.683594 22 C 17.09375 22 18.285156 20.917969 18.421875 19.515625 L 19.679688 6.5 L 20.75 6.5 C 21.019531 6.503906 21.273438 6.363281 21.410156 6.128906 C 21.542969 5.894531 21.542969 5.605469 21.410156 5.371094 C 21.273438 5.136719 21.019531 4.996094 20.75 5 L 19.121094 5 C 19.042969 4.988281 18.960938 4.988281 18.882812 5 L 15.460938 5 C 15.214844 3.3125 13.753906 2 12 2 Z M 12 3.5 C 12.941406 3.5 13.710938 4.132812 13.929688 5 L 10.070312 5 C 10.289062 4.132812 11.058594 3.5 12 3.5 Z M 5.824219 6.5 L 18.171875 6.5 L 16.925781 19.371094 C 16.863281 20.019531 16.332031 20.5 15.683594 20.5 L 8.316406 20.5 C 7.664062 20.5 7.132812 20.015625 7.070312 19.371094 Z M 10.238281 8.988281 C 9.824219 8.996094 9.492188 9.335938 9.5 9.75 L 9.5 17.25 C 9.496094 17.519531 9.636719 17.773438 9.871094 17.910156 C 10.105469 18.042969 10.394531 18.042969 10.628906 17.910156 C 10.863281 17.773438 11.003906 17.519531 11 17.25 L 11 9.75 C 11.003906 9.546875 10.921875 9.351562 10.78125 9.207031 C 10.636719 9.066406 10.441406 8.984375 10.238281 8.988281 Z M 13.738281 8.988281 C 13.324219 8.996094 12.992188 9.335938 13 9.75 L 13 17.25 C 12.996094 17.519531 13.136719 17.773438 13.371094 17.910156 C 13.605469 18.042969 13.894531 18.042969 14.128906 17.910156 C 14.363281 17.773438 14.503906 17.519531 14.5 17.25 L 14.5 9.75 C 14.503906 9.546875 14.421875 9.351562 14.28125 9.207031 C 14.136719 9.066406 13.941406 8.984375 13.738281 8.988281 Z M 13.738281 8.988281 "/>
</g>
</svg>
